# Blender v2.93.4 OBJ File: ''
# www.blender.org
mtllib test_object.mtl
o Cube
v 0.087335 1.551779 -1.542688
v 0.926303 -1.207729 -2.930325
v 1.192631 1.254784 0.056117
v 1.831594 -0.422980 0.543672
v -1.497709 0.652318 -0.575629
v -1.105787 -1.764663 -0.048290
v -0.474453 0.825349 1.134490
v -0.322589 -0.817493 1.647404
vt 0.875000 0.500000
vt 0.625000 0.750000
vt 0.625000 0.500000
vt 0.375000 0.750000
vt 0.625000 1.000000
vt 0.375000 1.000000
vt 0.625000 0.000000
vt 0.375000 0.250000
vt 0.375000 0.000000
vt 0.125000 0.500000
vt 0.125000 0.750000
vt 0.375000 0.500000
vt 0.625000 0.250000
vt 0.875000 0.750000
vn -0.2837 0.8883 0.3612
vn 0.3888 0.3071 0.8686
vn -0.9155 0.0404 0.4003
vn 0.3340 -0.8801 0.3373
vn 0.9176 0.2627 -0.2985
vn -0.7670 -0.2530 -0.5897
vn -0.2267 0.9733 0.0372
vn 0.4238 0.3979 0.8137
vn -0.8566 -0.0265 0.5152
vn 0.3960 -0.9125 0.1029
vn 0.7687 0.4581 -0.4463
vn -0.5934 0.2103 -0.7770
usemtl Material
s off
f 5/1/1 3/2/1 1/3/1
f 4/4/2 7/5/2 8/6/2
f 7/7/3 6/8/3 8/9/3
f 6/10/4 4/4/4 8/11/4
f 2/12/5 3/2/5 4/4/5
f 5/13/6 2/12/6 6/8/6
f 5/1/7 7/14/7 3/2/7
f 4/4/8 3/2/8 7/5/8
f 7/7/9 5/13/9 6/8/9
f 6/10/10 2/12/10 4/4/10
f 2/12/11 1/3/11 3/2/11
f 5/13/12 1/3/12 2/12/12
